<svg width="40" height="40" viewBox="0 0 40 40" fill="none" xmlns="http://www.w3.org/2000/svg">
<path d="M22.3304 5.19995L22.8828 6.15995L23.8297 6.63995L22.8828 7.19995L22.3304 8.15995L21.857 7.19995L20.9102 6.63995L21.857 6.15995L22.3304 5.19995Z" fill="#F59B0E" style="fill:#F59B0E;fill:color(display-p3 0.9608 0.6078 0.0549);fill-opacity:1;"/>
<path d="M38.1097 13.2L38.6621 14.16L39.609 14.64L38.6621 15.2L38.1097 16.16L37.6363 15.2L36.6895 14.64L37.6363 14.16L38.1097 13.2Z" fill="#F59B0E" style="fill:#F59B0E;fill:color(display-p3 0.9608 0.6078 0.0549);fill-opacity:1;"/>
<path d="M31.17 14.5601C31.17 11.6001 32.7481 9.04006 35.1154 7.60006C33.9317 6.88006 32.5903 6.56006 31.17 6.56006C26.8301 6.56006 23.2793 10.1601 23.2793 14.5601C23.2793 18.9601 26.8301 22.5601 31.17 22.5601C32.5903 22.5601 33.9317 22.1601 35.1154 21.5201C32.7481 20.1601 31.17 17.5201 31.17 14.5601Z" fill="#F59B0E" stroke="#F59B0E" style="fill:#F59B0E;fill:color(display-p3 0.9608 0.6078 0.0549);fill-opacity:1;stroke:#F59B0E;stroke:color(display-p3 0.9608 0.6078 0.0549);stroke-opacity:1;" stroke-width="1.6" stroke-linejoin="round"/>
<path d="M33.2424 24.4001C33.2424 19.8001 29.593 16.2001 25.1545 16.2001C24.1681 16.2001 23.2804 16.4001 22.3928 16.7001C22.0968 13.3001 19.3351 10.5001 15.8829 10.5001C12.2335 10.5001 9.27447 13.5001 9.27447 17.2001C9.27447 18.0001 9.47173 18.8001 9.669 19.5001C9.3731 19.4001 8.97856 19.4001 8.68266 19.4001C5.03322 19.4001 2.07422 22.4001 2.07422 26.1001C2.07422 29.7001 4.93459 32.7001 8.4854 32.8001H25.4503C29.7902 32.3001 33.2424 28.8001 33.2424 24.4001Z" fill="#4B94E2" style="fill:#4B94E2;fill:color(display-p3 0.2941 0.5804 0.8863);fill-opacity:1;"/>
</svg>
