<svg width="40" height="40" viewBox="0 0 40 40" fill="none" xmlns="http://www.w3.org/2000/svg">
<path d="M36.5504 17.1986C36.5504 12.6652 32.7567 9.11739 28.1428 9.11739C27.1175 9.11739 26.1947 9.31449 25.2719 9.61015C24.9643 6.25942 22.0934 3.5 18.5048 3.5C14.7112 3.5 11.6352 6.45652 11.6352 10.1029C11.6352 10.8913 11.8402 11.6797 12.0454 12.3696C11.7378 12.271 11.3276 12.271 11.02 12.271C7.22634 12.271 4.15039 15.2275 4.15039 18.8739C4.15039 22.4217 7.12381 25.3783 10.815 25.4768H28.4504C32.9618 24.9841 36.5504 21.5348 36.5504 17.1986Z" fill="#4B94E2" style="fill:#4B94E2;fill:color(display-p3 0.2941 0.5804 0.8863);fill-opacity:1;"/>
<path d="M16.1872 16.8044H23.8156L18.771 25.3192H23.5695L12.7422 37.5L16.9254 28.3939H12.25L16.1872 16.8044Z" fill="#F59B0E" style="fill:#F59B0E;fill:color(display-p3 0.9608 0.6078 0.0549);fill-opacity:1;"/>
</svg>
