<svg width="40" height="40" viewBox="0 0 40 40" fill="none" xmlns="http://www.w3.org/2000/svg">
<path d="M35.7751 16.8793C35.7751 12.1207 32.1621 8.3966 27.7679 8.3966C26.7914 8.3966 25.9126 8.6034 25.0337 8.9138C24.7408 5.39655 22.0065 2.5 18.5888 2.5C14.9758 2.5 12.0463 5.60345 12.0463 9.431C12.0463 10.2586 12.2416 11.0862 12.437 11.8103C12.144 11.7069 11.7534 11.7069 11.4604 11.7069C7.84744 11.7069 4.91797 14.8103 4.91797 18.6379C4.91797 22.3621 7.7498 25.4655 11.2652 25.569H28.0608C32.3574 25.0517 35.7751 21.431 35.7751 16.8793Z" fill="#4B94E2" style="fill:#4B94E2;fill:color(display-p3 0.2941 0.5804 0.8863);fill-opacity:1;"/>
<path d="M11.6562 31.3276V36.5" stroke="#3881CF" style="stroke:#3881CF;stroke:color(display-p3 0.2196 0.5059 0.8118);stroke-opacity:1;" stroke-width="1.2" stroke-linecap="round"/>
<path d="M13.3821 32.0851L9.92969 35.7425" stroke="#3881CF" style="stroke:#3881CF;stroke:color(display-p3 0.2196 0.5059 0.8118);stroke-opacity:1;" stroke-linecap="round"/>
<path d="M14.0973 33.9138H9.21484" stroke="#3881CF" style="stroke:#3881CF;stroke:color(display-p3 0.2196 0.5059 0.8118);stroke-opacity:1;" stroke-linecap="round"/>
<path d="M13.3821 35.7426L9.92969 32.0851" stroke="#3881CF" style="stroke:#3881CF;stroke:color(display-p3 0.2196 0.5059 0.8118);stroke-opacity:1;" stroke-linecap="round"/>
<path d="M19.4668 29.3276V34.5" stroke="#3881CF" style="stroke:#3881CF;stroke:color(display-p3 0.2196 0.5059 0.8118);stroke-opacity:1;" stroke-width="1.2" stroke-linecap="round"/>
<path d="M21.1927 30.0851L17.7402 33.7425" stroke="#3881CF" style="stroke:#3881CF;stroke:color(display-p3 0.2196 0.5059 0.8118);stroke-opacity:1;" stroke-linecap="round"/>
<path d="M21.9079 31.9138H17.0254" stroke="#3881CF" style="stroke:#3881CF;stroke:color(display-p3 0.2196 0.5059 0.8118);stroke-opacity:1;" stroke-linecap="round"/>
<path d="M21.1927 33.7426L17.7402 30.0851" stroke="#3881CF" style="stroke:#3881CF;stroke:color(display-p3 0.2196 0.5059 0.8118);stroke-opacity:1;" stroke-linecap="round"/>
<path d="M28.2559 27.3276V32.5" stroke="#3881CF" style="stroke:#3881CF;stroke:color(display-p3 0.2196 0.5059 0.8118);stroke-opacity:1;" stroke-width="1.2" stroke-linecap="round"/>
<path d="M29.9817 28.0851L26.5293 31.7425" stroke="#3881CF" style="stroke:#3881CF;stroke:color(display-p3 0.2196 0.5059 0.8118);stroke-opacity:1;" stroke-linecap="round"/>
<path d="M30.6969 29.9138H25.8145" stroke="#3881CF" style="stroke:#3881CF;stroke:color(display-p3 0.2196 0.5059 0.8118);stroke-opacity:1;" stroke-linecap="round"/>
<path d="M29.9817 31.7426L26.5293 28.0851" stroke="#3881CF" style="stroke:#3881CF;stroke:color(display-p3 0.2196 0.5059 0.8118);stroke-opacity:1;" stroke-linecap="round"/>
</svg>
