<svg width="40" height="40" viewBox="0 0 40 40" fill="none" xmlns="http://www.w3.org/2000/svg">
<path d="M36.5504 16.8363C36.5504 12.0919 32.7567 8.37892 28.1428 8.37892C27.1175 8.37892 26.1947 8.5852 25.2719 8.89462C24.9643 5.38789 22.0934 2.5 18.5048 2.5C14.7112 2.5 11.6352 5.59417 11.6352 9.41032C11.6352 10.2354 11.8402 11.0605 12.0454 11.7825C11.7378 11.6794 11.3276 11.6794 11.02 11.6794C7.22634 11.6794 4.15039 14.7735 4.15039 18.5897C4.15039 22.3027 7.12381 25.3969 10.815 25.5H28.4504C32.9618 24.9843 36.5504 21.3744 36.5504 16.8363Z" fill="#4B94E2" style="fill:#4B94E2;fill:color(display-p3 0.2941 0.5804 0.8863);fill-opacity:1;"/>
<path d="M23.1552 29.47L22.4277 33.5301" stroke="#3881CF" style="stroke:#3881CF;stroke:color(display-p3 0.2196 0.5059 0.8118);stroke-opacity:1;" stroke-width="3" stroke-linecap="round"/>
<path d="M12.1592 29.47L11.4316 33.5301" stroke="#3881CF" style="stroke:#3881CF;stroke:color(display-p3 0.2196 0.5059 0.8118);stroke-opacity:1;" stroke-width="3" stroke-linecap="round"/>
<path d="M28.3604 32.47L27.6328 36.5301" stroke="#3881CF" style="stroke:#3881CF;stroke:color(display-p3 0.2196 0.5059 0.8118);stroke-opacity:1;" stroke-width="3" stroke-linecap="round"/>
<path d="M17.3642 32.47L16.6367 36.5301" stroke="#3881CF" style="stroke:#3881CF;stroke:color(display-p3 0.2196 0.5059 0.8118);stroke-opacity:1;" stroke-width="3" stroke-linecap="round"/>
</svg>
