<svg width="40" height="40" viewBox="0 0 40 40" fill="none" xmlns="http://www.w3.org/2000/svg">
<path d="M13.1621 26V29" stroke="#F59B0E" style="stroke:#F59B0E;stroke:color(display-p3 0.9608 0.6078 0.0549);stroke-opacity:1;" stroke-width="2" stroke-linecap="round"/>
<path d="M6.71974 23.364L4.57227 25.485" stroke="#F59B0E" style="stroke:#F59B0E;stroke:color(display-p3 0.9608 0.6078 0.0549);stroke-opacity:1;" stroke-width="2" stroke-linecap="round"/>
<path d="M4.04922 17.0001H1.01172" stroke="#F59B0E" style="stroke:#F59B0E;stroke:color(display-p3 0.9608 0.6078 0.0549);stroke-opacity:1;" stroke-width="2" stroke-linecap="round"/>
<path d="M6.71779 10.636L4.57031 8.51514" stroke="#F59B0E" style="stroke:#F59B0E;stroke:color(display-p3 0.9608 0.6078 0.0549);stroke-opacity:1;" stroke-width="2" stroke-linecap="round"/>
<path d="M13.1621 8V5" stroke="#F59B0E" style="stroke:#F59B0E;stroke:color(display-p3 0.9608 0.6078 0.0549);stroke-opacity:1;" stroke-width="2" stroke-linecap="round"/>
<path d="M19.6055 10.636L21.7529 8.51514" stroke="#F59B0E" style="stroke:#F59B0E;stroke:color(display-p3 0.9608 0.6078 0.0549);stroke-opacity:1;" stroke-width="2" stroke-linecap="round"/>
<path d="M22.2754 17.0001H25.3129" stroke="#F59B0E" style="stroke:#F59B0E;stroke:color(display-p3 0.9608 0.6078 0.0549);stroke-opacity:1;" stroke-width="2" stroke-linecap="round"/>
<path d="M19.6055 23.364L21.7529 25.4849" stroke="#F59B0E" style="stroke:#F59B0E;stroke:color(display-p3 0.9608 0.6078 0.0549);stroke-opacity:1;" stroke-width="2" stroke-linecap="round"/>
<path d="M13.1621 22C15.958 22 18.2246 19.7614 18.2246 17C18.2246 14.2386 15.958 12 13.1621 12C10.3662 12 8.09961 14.2386 8.09961 17C8.09961 19.7614 10.3662 22 13.1621 22Z" fill="#F59B0E" stroke="#F59B0E" style="fill:#F59B0E;fill:color(display-p3 0.9608 0.6078 0.0549);fill-opacity:1;stroke:#F59B0E;stroke:color(display-p3 0.9608 0.6078 0.0549);stroke-opacity:1;" stroke-width="2"/>
<path d="M39.1825 25.4C39.1825 20.8 35.4362 17.2 30.88 17.2C29.8675 17.2 28.9562 17.4 28.045 17.7C27.7412 14.3 24.9062 11.5 21.3625 11.5C17.6162 11.5 14.5787 14.5 14.5787 18.2C14.5787 19 14.7812 19.8 14.9837 20.5C14.68 20.4 14.275 20.4 13.9712 20.4C10.225 20.4 7.1875 23.4 7.1875 27.1C7.1875 30.7 10.1238 33.7 13.7687 33.8H31.1837C35.6387 33.3 39.1825 29.8 39.1825 25.4Z" fill="#4B94E2" style="fill:#4B94E2;fill:color(display-p3 0.2941 0.5804 0.8863);fill-opacity:1;"/>
</svg>
